<svg xmlns="http://www.w3.org/2000/svg" width="1764.668" height="2396.551" viewBox="0 0 1764.668 2396.551">
  <g id="Background_Icons" data-name="Background Icons" transform="translate(123.706 -531.724)">
    <g id="Icon_feather-shopping-bag" data-name="Icon feather-shopping-bag" transform="translate(99.388 1993.19) rotate(42)">
      <path id="Path_1" data-name="Path 1" d="M47.007,3,4.5,61.8V267.6c0,16.237,12.687,29.4,28.338,29.4H231.2c15.65,0,28.338-13.163,28.338-29.4V61.8L217.033,3Z" fill="none" stroke="rgba(165,165,165,0.1)" stroke-linecap="round" stroke-linejoin="round" stroke-width="1"/>
      <path id="Path_2" data-name="Path 2" d="M4.5,9H259.539" transform="translate(0 52.8)" fill="none" stroke="rgba(165,165,165,0.1)" stroke-linecap="round" stroke-linejoin="round" stroke-width="1"/>
      <path id="Path_3" data-name="Path 3" d="M129.6,15A58.8,58.8,0,1,1,12,15" transform="translate(61.22 105.6)" fill="none" stroke="rgba(165,165,165,0.1)" stroke-linecap="round" stroke-linejoin="round" stroke-width="1"/>
    </g>
    <g id="Icon_feather-shopping-bag-2" data-name="Icon feather-shopping-bag" transform="translate(748.388 2370.19) rotate(42)">
      <path id="Path_1-2" data-name="Path 1" d="M47.007,3,4.5,61.8V267.6c0,16.237,12.687,29.4,28.338,29.4H231.2c15.65,0,28.338-13.163,28.338-29.4V61.8L217.033,3Z" fill="none" stroke="rgba(165,165,165,0.1)" stroke-linecap="round" stroke-linejoin="round" stroke-width="1"/>
      <path id="Path_2-2" data-name="Path 2" d="M4.5,9H259.539" transform="translate(0 52.8)" fill="none" stroke="rgba(165,165,165,0.1)" stroke-linecap="round" stroke-linejoin="round" stroke-width="1"/>
      <path id="Path_3-2" data-name="Path 3" d="M129.6,15A58.8,58.8,0,1,1,12,15" transform="translate(61.22 105.6)" fill="none" stroke="rgba(165,165,165,0.1)" stroke-linecap="round" stroke-linejoin="round" stroke-width="1"/>
    </g>
    <g id="Icon_feather-shopping-bag-3" data-name="Icon feather-shopping-bag" transform="translate(72.388 2533.19) rotate(42)">
      <path id="Path_1-3" data-name="Path 1" d="M47.007,3,4.5,61.8V267.6c0,16.237,12.687,29.4,28.338,29.4H231.2c15.65,0,28.338-13.163,28.338-29.4V61.8L217.033,3Z" fill="none" stroke="rgba(165,165,165,0.1)" stroke-linecap="round" stroke-linejoin="round" stroke-width="1"/>
      <path id="Path_2-3" data-name="Path 2" d="M4.5,9H259.539" transform="translate(0 52.8)" fill="none" stroke="rgba(165,165,165,0.1)" stroke-linecap="round" stroke-linejoin="round" stroke-width="1"/>
      <path id="Path_3-3" data-name="Path 3" d="M129.6,15A58.8,58.8,0,1,1,12,15" transform="translate(61.22 105.6)" fill="none" stroke="rgba(165,165,165,0.1)" stroke-linecap="round" stroke-linejoin="round" stroke-width="1"/>
    </g>
    <g id="Icon_feather-shopping-bag-4" data-name="Icon feather-shopping-bag" transform="translate(613.388 1690.19) rotate(42)">
      <path id="Path_1-4" data-name="Path 1" d="M47.007,3,4.5,61.8V267.6c0,16.237,12.687,29.4,28.338,29.4H231.2c15.65,0,28.338-13.163,28.338-29.4V61.8L217.033,3Z" fill="none" stroke="rgba(165,165,165,0.1)" stroke-linecap="round" stroke-linejoin="round" stroke-width="1"/>
      <path id="Path_2-4" data-name="Path 2" d="M4.5,9H259.539" transform="translate(0 52.8)" fill="none" stroke="rgba(165,165,165,0.1)" stroke-linecap="round" stroke-linejoin="round" stroke-width="1"/>
      <path id="Path_3-4" data-name="Path 3" d="M129.6,15A58.8,58.8,0,1,1,12,15" transform="translate(61.22 105.6)" fill="none" stroke="rgba(165,165,165,0.1)" stroke-linecap="round" stroke-linejoin="round" stroke-width="1"/>
    </g>
    <g id="Icon_feather-shopping-bag-5" data-name="Icon feather-shopping-bag" transform="translate(1262.388 2067.19) rotate(42)">
      <path id="Path_1-5" data-name="Path 1" d="M47.007,3,4.5,61.8V267.6c0,16.237,12.687,29.4,28.338,29.4H231.2c15.65,0,28.338-13.163,28.338-29.4V61.8L217.033,3Z" fill="none" stroke="rgba(165,165,165,0.1)" stroke-linecap="round" stroke-linejoin="round" stroke-width="1"/>
      <path id="Path_2-5" data-name="Path 2" d="M4.5,9H259.539" transform="translate(0 52.8)" fill="none" stroke="rgba(165,165,165,0.1)" stroke-linecap="round" stroke-linejoin="round" stroke-width="1"/>
      <path id="Path_3-5" data-name="Path 3" d="M129.6,15A58.8,58.8,0,1,1,12,15" transform="translate(61.22 105.6)" fill="none" stroke="rgba(165,165,165,0.1)" stroke-linecap="round" stroke-linejoin="round" stroke-width="1"/>
    </g>
    <g id="Icon_feather-shopping-bag-6" data-name="Icon feather-shopping-bag" transform="translate(128.388 1293.19) rotate(42)">
      <path id="Path_1-6" data-name="Path 1" d="M47.007,3,4.5,61.8V267.6c0,16.237,12.687,29.4,28.338,29.4H231.2c15.65,0,28.338-13.163,28.338-29.4V61.8L217.033,3Z" fill="none" stroke="rgba(165,165,165,0.1)" stroke-linecap="round" stroke-linejoin="round" stroke-width="1"/>
      <path id="Path_2-6" data-name="Path 2" d="M4.5,9H259.539" transform="translate(0 52.8)" fill="none" stroke="rgba(165,165,165,0.1)" stroke-linecap="round" stroke-linejoin="round" stroke-width="1"/>
      <path id="Path_3-6" data-name="Path 3" d="M129.6,15A58.8,58.8,0,1,1,12,15" transform="translate(61.22 105.6)" fill="none" stroke="rgba(165,165,165,0.1)" stroke-linecap="round" stroke-linejoin="round" stroke-width="1"/>
    </g>
    <g id="Icon_feather-shopping-bag-7" data-name="Icon feather-shopping-bag" transform="translate(93.388 527.19) rotate(42)">
      <path id="Path_1-7" data-name="Path 1" d="M47.007,3,4.5,61.8V267.6c0,16.237,12.687,29.4,28.338,29.4H231.2c15.65,0,28.338-13.163,28.338-29.4V61.8L217.033,3Z" fill="none" stroke="rgba(165,165,165,0.1)" stroke-linecap="round" stroke-linejoin="round" stroke-width="1"/>
      <path id="Path_2-7" data-name="Path 2" d="M4.5,9H259.539" transform="translate(0 52.8)" fill="none" stroke="rgba(165,165,165,0.1)" stroke-linecap="round" stroke-linejoin="round" stroke-width="1"/>
      <path id="Path_3-7" data-name="Path 3" d="M129.6,15A58.8,58.8,0,1,1,12,15" transform="translate(61.22 105.6)" fill="none" stroke="rgba(165,165,165,0.1)" stroke-linecap="round" stroke-linejoin="round" stroke-width="1"/>
    </g>
    <g id="Icon_feather-shopping-bag-8" data-name="Icon feather-shopping-bag" transform="translate(846.765 618.73) rotate(42)">
      <path id="Path_1-8" data-name="Path 1" d="M29.586,3,4.5,37.7V159.16c0,9.583,7.488,17.351,16.724,17.351H138.293c9.237,0,16.724-7.768,16.724-17.351V37.7L129.931,3Z" fill="none" stroke="rgba(165,165,165,0.1)" stroke-linecap="round" stroke-linejoin="round" stroke-width="1"/>
      <path id="Path_2-8" data-name="Path 2" d="M4.5,9H155.018" transform="translate(0 28.702)" fill="none" stroke="rgba(165,165,165,0.1)" stroke-linecap="round" stroke-linejoin="round" stroke-width="1"/>
      <path id="Path_3-8" data-name="Path 3" d="M81.4,15A34.7,34.7,0,1,1,12,15" transform="translate(33.057 57.405)" fill="none" stroke="rgba(165,165,165,0.1)" stroke-linecap="round" stroke-linejoin="round" stroke-width="1"/>
    </g>
    <g id="Icon_feather-shopping-bag-9" data-name="Icon feather-shopping-bag" transform="translate(1089.388 1452.19) rotate(42)">
      <path id="Path_1-9" data-name="Path 1" d="M47.007,3,4.5,61.8V267.6c0,16.237,12.687,29.4,28.338,29.4H231.2c15.65,0,28.338-13.163,28.338-29.4V61.8L217.033,3Z" fill="none" stroke="rgba(165,165,165,0.1)" stroke-linecap="round" stroke-linejoin="round" stroke-width="1"/>
      <path id="Path_2-9" data-name="Path 2" d="M4.5,9H259.539" transform="translate(0 52.8)" fill="none" stroke="rgba(165,165,165,0.1)" stroke-linecap="round" stroke-linejoin="round" stroke-width="1"/>
      <path id="Path_3-9" data-name="Path 3" d="M129.6,15A58.8,58.8,0,1,1,12,15" transform="translate(61.22 105.6)" fill="none" stroke="rgba(165,165,165,0.1)" stroke-linecap="round" stroke-linejoin="round" stroke-width="1"/>
    </g>
    <g id="Icon_feather-shopping-bag-10" data-name="Icon feather-shopping-bag" transform="translate(642.388 990.19) rotate(42)">
      <path id="Path_1-10" data-name="Path 1" d="M47.007,3,4.5,61.8V267.6c0,16.237,12.687,29.4,28.338,29.4H231.2c15.65,0,28.338-13.163,28.338-29.4V61.8L217.033,3Z" fill="none" stroke="rgba(165,165,165,0.1)" stroke-linecap="round" stroke-linejoin="round" stroke-width="1"/>
      <path id="Path_2-10" data-name="Path 2" d="M4.5,9H259.539" transform="translate(0 52.8)" fill="none" stroke="rgba(165,165,165,0.1)" stroke-linecap="round" stroke-linejoin="round" stroke-width="1"/>
      <path id="Path_3-10" data-name="Path 3" d="M129.6,15A58.8,58.8,0,1,1,12,15" transform="translate(61.22 105.6)" fill="none" stroke="rgba(165,165,165,0.1)" stroke-linecap="round" stroke-linejoin="round" stroke-width="1"/>
    </g>
    <g id="Icon_feather-shopping-bag-11" data-name="Icon feather-shopping-bag" transform="translate(409.108 2142)">
      <path id="Path_1-11" data-name="Path 1" d="M10.139,3,4.5,10.8V38.1A3.831,3.831,0,0,0,8.259,42H34.573a3.831,3.831,0,0,0,3.759-3.9V10.8L32.693,3Z" transform="translate(0 0)" fill="none" stroke="#a5a5a5" stroke-linecap="round" stroke-linejoin="round" stroke-width="1"/>
      <path id="Path_2-11" data-name="Path 2" d="M4.5,9H38.332" transform="translate(0 1.8)" fill="none" stroke="#a5a5a5" stroke-linecap="round" stroke-linejoin="round" stroke-width="1"/>
      <path id="Path_3-11" data-name="Path 3" d="M27.6,15A7.8,7.8,0,0,1,12,15" transform="translate(1.616 3.6)" fill="none" stroke="#a5a5a5" stroke-linecap="round" stroke-linejoin="round" stroke-width="1"/>
    </g>
    <g id="Icon_feather-shopping-bag-12" data-name="Icon feather-shopping-bag" transform="translate(1291.388 702.19) rotate(42)">
      <path id="Path_1-12" data-name="Path 1" d="M47.007,3,4.5,61.8V267.6c0,16.237,12.687,29.4,28.338,29.4H231.2c15.65,0,28.338-13.163,28.338-29.4V61.8L217.033,3Z" fill="none" stroke="rgba(165,165,165,0.1)" stroke-linecap="round" stroke-linejoin="round" stroke-width="1"/>
      <path id="Path_2-12" data-name="Path 2" d="M4.5,9H259.539" transform="translate(0 52.8)" fill="none" stroke="rgba(165,165,165,0.1)" stroke-linecap="round" stroke-linejoin="round" stroke-width="1"/>
      <path id="Path_3-12" data-name="Path 3" d="M129.6,15A58.8,58.8,0,1,1,12,15" transform="translate(61.22 105.6)" fill="none" stroke="rgba(165,165,165,0.1)" stroke-linecap="round" stroke-linejoin="round" stroke-width="1"/>
    </g>
    <g id="Icon_feather-shopping-bag-13" data-name="Icon feather-shopping-bag" transform="translate(1449.388 1993.19) rotate(42)">
      <path id="Path_1-13" data-name="Path 1" d="M47.007,3,4.5,61.8V267.6c0,16.237,12.687,29.4,28.338,29.4H231.2c15.65,0,28.338-13.163,28.338-29.4V61.8L217.033,3Z" fill="none" stroke="rgba(165,165,165,0.1)" stroke-linecap="round" stroke-linejoin="round" stroke-width="1"/>
      <path id="Path_2-13" data-name="Path 2" d="M4.5,9H259.539" transform="translate(0 52.8)" fill="none" stroke="rgba(165,165,165,0.1)" stroke-linecap="round" stroke-linejoin="round" stroke-width="1"/>
      <path id="Path_3-13" data-name="Path 3" d="M129.6,15A58.8,58.8,0,1,1,12,15" transform="translate(61.22 105.6)" fill="none" stroke="rgba(165,165,165,0.1)" stroke-linecap="round" stroke-linejoin="round" stroke-width="1"/>
    </g>
    <g id="Icon_feather-shopping-bag-14" data-name="Icon feather-shopping-bag" transform="translate(1422.388 2533.19) rotate(42)">
      <path id="Path_1-14" data-name="Path 1" d="M47.007,3,4.5,61.8V267.6c0,16.237,12.687,29.4,28.338,29.4H231.2c15.65,0,28.338-13.163,28.338-29.4V61.8L217.033,3Z" fill="none" stroke="rgba(165,165,165,0.1)" stroke-linecap="round" stroke-linejoin="round" stroke-width="1"/>
      <path id="Path_2-14" data-name="Path 2" d="M4.5,9H259.539" transform="translate(0 52.8)" fill="none" stroke="rgba(165,165,165,0.1)" stroke-linecap="round" stroke-linejoin="round" stroke-width="1"/>
      <path id="Path_3-14" data-name="Path 3" d="M129.6,15A58.8,58.8,0,1,1,12,15" transform="translate(61.22 105.6)" fill="none" stroke="rgba(165,165,165,0.1)" stroke-linecap="round" stroke-linejoin="round" stroke-width="1"/>
    </g>
  </g>
</svg>
